<svg xmlns="http://www.w3.org/2000/svg" viewBox="0 0 545.12 389.52"><defs><style>.cls-1,.cls-2{fill:#342e2a;opacity:0.2;}.cls-10,.cls-11,.cls-2,.cls-3,.cls-4,.cls-5,.cls-6,.cls-7,.cls-8,.cls-9{fill-rule:evenodd;}.cls-3{fill:#a7bf39;}.cls-4{fill:#82983b;}.cls-5{fill:#fad08d;}.cls-6{fill:#e6af55;}.cls-7{fill:#ffe3b6;}.cls-8{fill:#f2c57b;}.cls-9{fill:#ebb661;}.cls-10{fill:#94ac3c;}.cls-11{fill:#bad532;}</style></defs><g id="Layer_2" data-name="Layer 2"><g id="Publicdomainvectors.org"><ellipse class="cls-1" cx="258.82" cy="228.81" rx="215.06" ry="62.89"/><path class="cls-2" d="M383.92,389.52c88.79,0,161.2-22,161.2-48.91s-72.41-48.91-161.2-48.91-161.2,22-161.2,48.91S295.14,389.52,383.92,389.52Z"/><path class="cls-3" d="M258.47,53.48,300.6,57.8a125.11,125.11,0,0,1,67.32,28.33,18,18,0,0,1,4.45,22.44c-24.2,45.92-67.54,76.53-125.26,83l-124.94-4L45.6,95.1l72.53-34Z"/><path class="cls-4" d="M258.47,53.48,300.6,57.8a125.11,125.11,0,0,1,67.32,28.33,18,18,0,0,1,4.45,22.44C375.8,94.45,358.7,87,343.49,96.75c-68.87,44.31-142.69,50.38-201.6,34.9A448.26,448.26,0,0,1,46.68,94.6l71.45-33.52Z"/><path class="cls-5" d="M377.09,63a21.54,21.54,0,1,0-24-35.7,29.62,29.62,0,0,1-32.55,2.22,227.25,227.25,0,0,0-249.84,17A66,66,0,0,1,27.83,60a26.68,26.68,0,0,0-10.16,51.76,49.86,49.86,0,0,1,27.38,23.89,189.19,189.19,0,0,0,333.27,4.23,12.33,12.33,0,0,0-15.08-17.52l-20.8,7.72c-90.91,33.74-203.22,40.18-274.63-25.42C171.29,147.9,278.53,121,377.09,63Z"/><path class="cls-6" d="M39.69,127.47a49.44,49.44,0,0,1,5.36,8.2,189.19,189.19,0,0,0,328.41,12.5L349.92,167a215.68,215.68,0,0,1-244.86,16.68A241.1,241.1,0,0,1,40,126.85Z"/><path class="cls-7" d="M353.1,27.32a29.62,29.62,0,0,1-32.55,2.22,227.25,227.25,0,0,0-249.84,17A66,66,0,0,1,27.83,60a26.68,26.68,0,0,0-10.16,51.76,49.86,49.86,0,0,1,27.38,23.89l-8-20.13C31.63,101.82,22.6,82.3,50.27,74.9c65.44-8.28,119.72-45,191.9-27.27C282.8,57.63,327.12,60.12,353.1,27.32Z"/><path class="cls-6" d="M377.09,63a21.54,21.54,0,0,0,2.14-35.7c6.17,9.18,1.5,18.42-8.11,25a246.54,246.54,0,0,1-53.41,27.46q-22.31,8.3-45,15.41A399.55,399.55,0,0,1,86.59,107.86l-18.78-3.18C171.29,147.9,278.53,121,377.09,63Z"/><path class="cls-6" d="M364.47,122a9.71,9.71,0,0,0-1.23.39l-20.8,7.72c-82.15,30.48-181.76,38.67-252.89-8.42,84.19,66.55,196.52,51.56,274.92.31ZM77.6,108.56l1.65.6-1.72-.68Z"/><path class="cls-8" d="M90.84,47c30.81-23,66.44-36.35,109.46-34.89C161.93,16.79,125.72,29.42,90.84,47Z"/><path class="cls-8" d="M77.91,63.82c30.82-23,66.44-36.35,109.46-34.89C149,33.64,112.79,46.27,77.91,63.82Z"/><path class="cls-8" d="M183.59,23.66c37.23-9.6,75.26-8.46,114.52,9.19C260.82,22.67,222.52,20.63,183.59,23.66Z"/><path class="cls-9" d="M141.84,86.18c48.56-22.24,100.84-30,158.85-15.48C247.2,65.92,194.33,72.51,141.84,86.18Z"/><path class="cls-9" d="M252.84,78.62c-47.31,20.94-98,27.81-154,13C150.54,97,201.83,91.21,252.84,78.62Z"/><path class="cls-6" d="M202.22,221.35c-63.65,1.44-117.22-23.58-150.65-105C90.34,175.79,142.07,207.73,202.22,221.35Z"/><path class="cls-6" d="M327.43,173.31c-48.11,41.71-105.32,56.6-183,15.2C212.2,209.58,272.42,201.19,327.43,173.31Z"/><path class="cls-6" d="M261.23,178.18c-52.19,9.61-104.45,4.37-156.81-23.73C154.79,172.07,207.34,178.58,261.23,178.18Z"/><path class="cls-6" d="M370.41,137.64c-27.12,21.41-58.81,34.28-97.5,34C307.27,166.49,339.5,154.26,370.41,137.64Z"/><path class="cls-7" d="M139,196.86c31.53-17,64.58-19.8,96.89-2.43L204.7,234.56,163.58,225l-.88-.66-20.45-15.61Z"/><path class="cls-3" d="M503.45,209.14a18,18,0,0,1,4.46,22.44c-24.21,45.92-67.55,76.53-125.27,83l-124.94-4-63.32-76.5,9-6.43-7.44-9.07a28.22,28.22,0,0,1-6.14-14.21C245.35,132.6,422.84,142,503.45,209.14Z"/><path class="cls-10" d="M503.45,209.14a18,18,0,0,1,4.46,22.44c-24.21,45.92-67.55,76.53-125.27,83l-124.94-4-63.32-76.5,9-6.43-7.44-9.07a28.22,28.22,0,0,1-6.14-14.21l.08-.1,7.5,7.16a100.5,100.5,0,0,0,33.3,19.23,368.59,368.59,0,0,0,239.85,0,21.16,21.16,0,0,0,9.08-33.89l-7.34-8.44A185.77,185.77,0,0,1,503.45,209.14Z"/><path class="cls-5" d="M138.84,196.81a26.69,26.69,0,0,0,14.36,38,49.8,49.8,0,0,1,27.38,23.88,189.2,189.2,0,0,0,333.27,4.24,12.33,12.33,0,0,0-15.08-17.53L478,253.11c-90.91,33.74-203.22,40.18-274.63-25.42l-12.46-5.63A49,49,0,0,0,175.61,218,51.28,51.28,0,0,1,139,196.86Z"/><path class="cls-6" d="M175.22,250.48a49.44,49.44,0,0,1,5.36,8.2A189.19,189.19,0,0,0,509,271.18L485.45,290a215.68,215.68,0,0,1-244.86,16.68,241.1,241.1,0,0,1-65.08-56.78Z"/><path class="cls-6" d="M500,245a9.36,9.36,0,0,0-1.24.39L478,253.11c-82.15,30.48-181.75,38.67-252.89-8.42C309.27,311.24,421.6,296.25,500,245ZM213.13,231.57c.55.21,1.1.4,1.65.6l-1.72-.68Z"/><path class="cls-6" d="M337.75,344.36c-63.65,1.44-117.22-23.58-150.65-105C225.87,298.8,277.6,330.74,337.75,344.36Z"/><path class="cls-6" d="M463,296.32c-48.11,41.71-105.32,56.6-183,15.2C347.73,332.59,408,324.19,463,296.32Z"/><path class="cls-6" d="M396.76,301.19c-52.19,9.61-104.45,4.37-156.81-23.73C290.32,295.08,342.86,301.59,396.76,301.19Z"/><path class="cls-6" d="M506,260.65c-27.13,21.41-58.82,34.28-97.51,34C442.8,289.5,475,277.27,506,260.65Z"/><path class="cls-11" d="M316,160.6c32.64-1.42,59.1,6.32,59.1,17.3s-26.46,21-59.1,22.47-59.09-6.32-59.09-17.3S283.39,162,316,160.6Z"/><path class="cls-10" d="M455.93,214.68c-48.11,41.71-105.33,56.6-183,15.2C340.69,251,400.91,242.56,455.93,214.68Z"/><path class="cls-10" d="M375.12,220.54c-52.19,9.61-104.45,4.37-156.81-23.73C268.68,214.43,321.22,220.94,375.12,220.54Z"/></g></g></svg>